<svg width="1173" height="56" viewBox="0 0 1173 56" fill="none" xmlns="http://www.w3.org/2000/svg">
<path d="M2.65894 41V15.44H13.5669C14.7909 15.44 15.9069 15.692 16.9149 16.196C17.9469 16.676 18.8349 17.336 19.5789 18.176C20.3229 18.992 20.8989 19.916 21.3069 20.948C21.7149 21.98 21.9189 23.036 21.9189 24.116C21.9189 25.58 21.5709 26.972 20.8749 28.292C20.2029 29.612 19.2549 30.692 18.0309 31.532C16.8309 32.348 15.4029 32.756 13.7469 32.756H8.56294V41H2.65894ZM8.56294 27.608H13.3869C13.8429 27.608 14.2629 27.476 14.6469 27.212C15.0309 26.948 15.3429 26.552 15.5829 26.024C15.8229 25.496 15.9429 24.848 15.9429 24.08C15.9429 23.288 15.7989 22.64 15.5109 22.136C15.2469 21.608 14.8989 21.224 14.4669 20.984C14.0589 20.744 13.6269 20.624 13.1709 20.624H8.56294V27.608ZM24.5846 33.692V28.508H35.6726V33.692H24.5846ZM57.5724 20.624H49.7964V41H43.8924V20.624H36.0804V15.44H57.5724V20.624ZM59.9878 41V22.1H65.7478V41H59.9878ZM59.9878 19.94V14.72H65.7478V19.94H59.9878ZM78.7269 41.36C77.1189 41.36 75.6909 41.096 74.4429 40.568C73.1949 40.04 72.1269 39.32 71.2389 38.408C70.3749 37.496 69.7149 36.452 69.2589 35.276C68.8029 34.1 68.5749 32.852 68.5749 31.532C68.5749 29.804 68.9709 28.196 69.7629 26.708C70.5789 25.22 71.7429 24.02 73.2549 23.108C74.7669 22.196 76.5909 21.74 78.7269 21.74C80.8869 21.74 82.7109 22.208 84.1989 23.144C85.7109 24.056 86.8389 25.256 87.5829 26.744L81.9669 28.436C81.6069 27.86 81.1389 27.416 80.5629 27.104C80.0109 26.792 79.3869 26.636 78.6909 26.636C77.8989 26.636 77.1789 26.84 76.5309 27.248C75.9069 27.656 75.4029 28.22 75.0189 28.94C74.6589 29.66 74.4789 30.524 74.4789 31.532C74.4789 32.516 74.6709 33.38 75.0549 34.124C75.4389 34.868 75.9429 35.456 76.5669 35.888C77.1909 36.296 77.8989 36.5 78.6909 36.5C79.1709 36.5 79.6149 36.428 80.0229 36.284C80.4549 36.116 80.8389 35.888 81.1749 35.6C81.5349 35.312 81.8109 34.988 82.0029 34.628L87.6189 36.356C87.1629 37.316 86.5029 38.18 85.6389 38.948C84.7989 39.692 83.8029 40.28 82.6509 40.712C81.4989 41.144 80.1909 41.36 78.7269 41.36ZM102.93 41L97.9982 33.44L95.9822 35.492V41H90.2222V14.72H95.9822V29.912L102.39 22.1H108.474L101.67 30.236L109.05 41H102.93ZM118.805 41.36C117.197 41.36 115.769 41.108 114.521 40.604C113.273 40.076 112.205 39.368 111.317 38.48C110.453 37.592 109.793 36.572 109.337 35.42C108.881 34.244 108.653 33.02 108.653 31.748C108.653 29.924 109.049 28.268 109.841 26.78C110.657 25.268 111.821 24.056 113.333 23.144C114.845 22.208 116.669 21.74 118.805 21.74C120.941 21.74 122.753 22.196 124.241 23.108C125.753 24.02 126.905 25.22 127.697 26.708C128.489 28.172 128.885 29.768 128.885 31.496C128.885 31.832 128.861 32.168 128.813 32.504C128.789 32.816 128.765 33.092 128.741 33.332H114.773C114.845 34.172 115.073 34.88 115.457 35.456C115.865 36.032 116.381 36.476 117.005 36.788C117.629 37.076 118.289 37.22 118.985 37.22C119.849 37.22 120.653 37.016 121.397 36.608C122.165 36.2 122.693 35.648 122.981 34.952L127.877 36.32C127.397 37.304 126.713 38.18 125.825 38.948C124.961 39.692 123.929 40.28 122.729 40.712C121.553 41.144 120.245 41.36 118.805 41.36ZM114.629 29.804H122.837C122.741 29.012 122.513 28.328 122.153 27.752C121.793 27.152 121.313 26.696 120.713 26.384C120.113 26.048 119.453 25.88 118.733 25.88C117.989 25.88 117.317 26.048 116.717 26.384C116.141 26.696 115.673 27.152 115.313 27.752C114.953 28.328 114.725 29.012 114.629 29.804ZM143.525 39.992C142.997 40.208 142.409 40.424 141.761 40.64C141.137 40.856 140.477 41.024 139.781 41.144C139.085 41.288 138.401 41.36 137.729 41.36C136.769 41.36 135.881 41.204 135.065 40.892C134.273 40.556 133.637 40.016 133.157 39.272C132.701 38.528 132.473 37.544 132.473 36.32V26.456H130.061V22.1H132.473V16.088H138.233V22.1H142.085V26.456H138.233V34.34C138.233 34.964 138.389 35.42 138.701 35.708C139.013 35.972 139.409 36.104 139.889 36.104C140.297 36.104 140.729 36.032 141.185 35.888C141.665 35.744 142.073 35.588 142.409 35.42L143.525 39.992Z" fill="#030712"/>
<path d="M392.197 22.22V35H390.577V29.186H383.539V35H381.919V22.22H383.539V27.746H390.577V22.22H392.197ZM398.954 35.18C398.246 35.18 397.604 35.054 397.028 34.802C396.452 34.538 395.954 34.184 395.534 33.74C395.114 33.284 394.79 32.762 394.562 32.174C394.334 31.586 394.22 30.968 394.22 30.32C394.22 29.66 394.334 29.036 394.562 28.448C394.79 27.86 395.114 27.344 395.534 26.9C395.954 26.444 396.452 26.09 397.028 25.838C397.616 25.574 398.258 25.442 398.954 25.442C399.662 25.442 400.304 25.574 400.88 25.838C401.456 26.09 401.954 26.444 402.374 26.9C402.806 27.344 403.136 27.86 403.364 28.448C403.592 29.036 403.706 29.66 403.706 30.32C403.706 30.968 403.592 31.586 403.364 32.174C403.136 32.762 402.812 33.284 402.392 33.74C401.972 34.184 401.468 34.538 400.88 34.802C400.304 35.054 399.662 35.18 398.954 35.18ZM395.84 30.338C395.84 30.986 395.978 31.574 396.254 32.102C396.542 32.63 396.92 33.05 397.388 33.362C397.856 33.662 398.378 33.812 398.954 33.812C399.53 33.812 400.052 33.656 400.52 33.344C401 33.032 401.378 32.612 401.654 32.084C401.942 31.544 402.086 30.95 402.086 30.302C402.086 29.654 401.942 29.066 401.654 28.538C401.378 28.01 401 27.59 400.52 27.278C400.052 26.966 399.53 26.81 398.954 26.81C398.378 26.81 397.856 26.972 397.388 27.296C396.92 27.608 396.542 28.028 396.254 28.556C395.978 29.084 395.84 29.678 395.84 30.338ZM419.792 35H418.208V29.744C418.208 28.76 418.046 28.034 417.722 27.566C417.41 27.098 416.942 26.864 416.318 26.864C415.682 26.864 415.106 27.098 414.59 27.566C414.074 28.022 413.708 28.616 413.492 29.348V35H411.908V29.744C411.908 28.748 411.752 28.022 411.44 27.566C411.128 27.098 410.66 26.864 410.036 26.864C409.412 26.864 408.836 27.092 408.308 27.548C407.792 27.992 407.426 28.586 407.21 29.33V35H405.626V25.604H407.066V27.62C407.45 26.924 407.948 26.39 408.56 26.018C409.172 25.634 409.862 25.442 410.63 25.442C411.41 25.442 412.034 25.658 412.502 26.09C412.97 26.51 413.258 27.056 413.366 27.728C413.786 26.984 414.296 26.42 414.896 26.036C415.496 25.64 416.18 25.442 416.948 25.442C417.488 25.442 417.938 25.544 418.298 25.748C418.67 25.94 418.964 26.216 419.18 26.576C419.396 26.924 419.552 27.338 419.648 27.818C419.744 28.298 419.792 28.82 419.792 29.384V35ZM426.413 35.18C425.705 35.18 425.057 35.054 424.469 34.802C423.893 34.538 423.389 34.184 422.957 33.74C422.537 33.284 422.207 32.762 421.967 32.174C421.739 31.586 421.625 30.962 421.625 30.302C421.625 29.414 421.829 28.604 422.237 27.872C422.645 27.14 423.209 26.552 423.929 26.108C424.661 25.664 425.495 25.442 426.431 25.442C427.379 25.442 428.201 25.67 428.897 26.126C429.605 26.57 430.151 27.158 430.535 27.89C430.931 28.61 431.129 29.39 431.129 30.23C431.129 30.35 431.123 30.47 431.111 30.59C431.111 30.698 431.105 30.782 431.093 30.842H423.299C423.347 31.454 423.515 32 423.803 32.48C424.103 32.948 424.487 33.32 424.955 33.596C425.423 33.86 425.927 33.992 426.467 33.992C427.043 33.992 427.583 33.848 428.087 33.56C428.603 33.272 428.957 32.894 429.149 32.426L430.517 32.804C430.313 33.26 430.007 33.668 429.599 34.028C429.203 34.388 428.729 34.67 428.177 34.874C427.637 35.078 427.049 35.18 426.413 35.18ZM423.245 29.744H429.653C429.605 29.132 429.431 28.592 429.131 28.124C428.831 27.656 428.447 27.29 427.979 27.026C427.511 26.762 426.995 26.63 426.431 26.63C425.879 26.63 425.369 26.762 424.901 27.026C424.433 27.29 424.049 27.656 423.749 28.124C423.461 28.592 423.293 29.132 423.245 29.744Z" fill="#030712" fill-opacity="0.7"/>
<path d="M493.763 22.22H495.131L500.351 35H498.623L497.111 31.256H491.747L490.253 35H488.525L493.763 22.22ZM496.751 29.996L494.447 24.092L492.071 29.996H496.751ZM506.628 35.18C505.896 35.18 505.23 35 504.63 34.64C504.03 34.28 503.556 33.812 503.208 33.236V35H501.804V21.86H503.388V27.476C503.784 26.864 504.27 26.372 504.846 26C505.422 25.628 506.094 25.442 506.862 25.442C507.51 25.442 508.092 25.58 508.608 25.856C509.124 26.12 509.562 26.486 509.922 26.954C510.294 27.41 510.576 27.932 510.768 28.52C510.972 29.096 511.074 29.702 511.074 30.338C511.074 30.998 510.96 31.622 510.732 32.21C510.516 32.786 510.204 33.302 509.796 33.758C509.388 34.202 508.914 34.55 508.374 34.802C507.846 35.054 507.264 35.18 506.628 35.18ZM506.232 33.812C506.7 33.812 507.132 33.716 507.528 33.524C507.924 33.332 508.266 33.074 508.554 32.75C508.842 32.426 509.064 32.054 509.22 31.634C509.376 31.214 509.454 30.782 509.454 30.338C509.454 29.726 509.322 29.15 509.058 28.61C508.806 28.07 508.446 27.638 507.978 27.314C507.522 26.978 506.988 26.81 506.376 26.81C505.932 26.81 505.518 26.912 505.134 27.116C504.75 27.32 504.408 27.59 504.108 27.926C503.82 28.25 503.58 28.61 503.388 29.006V31.724C503.448 32.024 503.574 32.3 503.766 32.552C503.958 32.804 504.192 33.026 504.468 33.218C504.744 33.398 505.032 33.542 505.332 33.65C505.644 33.758 505.944 33.812 506.232 33.812ZM517.123 35.18C516.415 35.18 515.773 35.054 515.197 34.802C514.621 34.538 514.123 34.184 513.703 33.74C513.283 33.284 512.959 32.762 512.731 32.174C512.503 31.586 512.389 30.968 512.389 30.32C512.389 29.66 512.503 29.036 512.731 28.448C512.959 27.86 513.283 27.344 513.703 26.9C514.123 26.444 514.621 26.09 515.197 25.838C515.785 25.574 516.427 25.442 517.123 25.442C517.831 25.442 518.473 25.574 519.049 25.838C519.625 26.09 520.123 26.444 520.543 26.9C520.975 27.344 521.305 27.86 521.533 28.448C521.761 29.036 521.875 29.66 521.875 30.32C521.875 30.968 521.761 31.586 521.533 32.174C521.305 32.762 520.981 33.284 520.561 33.74C520.141 34.184 519.637 34.538 519.049 34.802C518.473 35.054 517.831 35.18 517.123 35.18ZM514.009 30.338C514.009 30.986 514.147 31.574 514.423 32.102C514.711 32.63 515.089 33.05 515.557 33.362C516.025 33.662 516.547 33.812 517.123 33.812C517.699 33.812 518.221 33.656 518.689 33.344C519.169 33.032 519.547 32.612 519.823 32.084C520.111 31.544 520.255 30.95 520.255 30.302C520.255 29.654 520.111 29.066 519.823 28.538C519.547 28.01 519.169 27.59 518.689 27.278C518.221 26.966 517.699 26.81 517.123 26.81C516.547 26.81 516.025 26.972 515.557 27.296C515.089 27.608 514.711 28.028 514.423 28.556C514.147 29.084 514.009 29.678 514.009 30.338ZM523.705 31.238V25.604H525.289V30.932C525.289 31.892 525.457 32.612 525.793 33.092C526.129 33.572 526.627 33.812 527.287 33.812C527.719 33.812 528.133 33.722 528.529 33.542C528.937 33.35 529.303 33.08 529.627 32.732C529.951 32.384 530.203 31.97 530.383 31.49V25.604H531.967V33.2C531.967 33.392 532.003 33.536 532.075 33.632C532.159 33.716 532.291 33.764 532.471 33.776V35C532.291 35.024 532.147 35.036 532.039 35.036C531.943 35.048 531.847 35.054 531.751 35.054C531.451 35.054 531.193 34.964 530.977 34.784C530.761 34.592 530.647 34.358 530.635 34.082L530.599 32.984C530.191 33.68 529.639 34.22 528.943 34.604C528.259 34.988 527.509 35.18 526.693 35.18C525.709 35.18 524.965 34.85 524.461 34.19C523.957 33.518 523.705 32.534 523.705 31.238ZM539.465 34.532C539.333 34.592 539.153 34.67 538.925 34.766C538.697 34.862 538.433 34.946 538.133 35.018C537.833 35.09 537.515 35.126 537.179 35.126C536.795 35.126 536.441 35.06 536.117 34.928C535.793 34.784 535.535 34.568 535.343 34.28C535.151 33.98 535.055 33.608 535.055 33.164V26.846H533.777V25.604H535.055V22.472H536.639V25.604H538.745V26.846H536.639V32.678C536.663 33.014 536.777 33.266 536.981 33.434C537.185 33.59 537.425 33.668 537.701 33.668C538.013 33.668 538.301 33.614 538.565 33.506C538.829 33.398 539.003 33.32 539.087 33.272L539.465 34.532Z" fill="#030712" fill-opacity="0.7"/>
<path d="M597.946 35V22.22H602.374C603.742 22.22 604.882 22.508 605.794 23.084C606.718 23.648 607.408 24.416 607.864 25.388C608.32 26.348 608.548 27.416 608.548 28.592C608.548 29.888 608.296 31.016 607.792 31.976C607.288 32.936 606.574 33.68 605.65 34.208C604.726 34.736 603.634 35 602.374 35H597.946ZM606.91 28.592C606.91 27.632 606.73 26.78 606.37 26.036C606.022 25.292 605.512 24.71 604.84 24.29C604.168 23.87 603.346 23.66 602.374 23.66H599.566V33.56H602.374C603.358 33.56 604.186 33.344 604.858 32.912C605.53 32.468 606.04 31.874 606.388 31.13C606.736 30.374 606.91 29.528 606.91 28.592ZM614.737 35.18C614.029 35.18 613.381 35.054 612.793 34.802C612.217 34.538 611.713 34.184 611.281 33.74C610.861 33.284 610.531 32.762 610.291 32.174C610.063 31.586 609.949 30.962 609.949 30.302C609.949 29.414 610.153 28.604 610.561 27.872C610.969 27.14 611.533 26.552 612.253 26.108C612.985 25.664 613.819 25.442 614.755 25.442C615.703 25.442 616.525 25.67 617.221 26.126C617.929 26.57 618.475 27.158 618.859 27.89C619.255 28.61 619.453 29.39 619.453 30.23C619.453 30.35 619.447 30.47 619.435 30.59C619.435 30.698 619.429 30.782 619.417 30.842H611.623C611.671 31.454 611.839 32 612.127 32.48C612.427 32.948 612.811 33.32 613.279 33.596C613.747 33.86 614.251 33.992 614.791 33.992C615.367 33.992 615.907 33.848 616.411 33.56C616.927 33.272 617.281 32.894 617.473 32.426L618.841 32.804C618.637 33.26 618.331 33.668 617.923 34.028C617.527 34.388 617.053 34.67 616.501 34.874C615.961 35.078 615.373 35.18 614.737 35.18ZM611.569 29.744H617.977C617.929 29.132 617.755 28.592 617.455 28.124C617.155 27.656 616.771 27.29 616.303 27.026C615.835 26.762 615.319 26.63 614.755 26.63C614.203 26.63 613.693 26.762 613.225 27.026C612.757 27.29 612.373 27.656 612.073 28.124C611.785 28.592 611.617 29.132 611.569 29.744ZM624.436 35.18C623.656 35.18 622.924 35.054 622.24 34.802C621.556 34.538 620.968 34.148 620.476 33.632L621.088 32.516C621.628 33.02 622.168 33.38 622.708 33.596C623.248 33.812 623.8 33.92 624.364 33.92C625.012 33.92 625.54 33.8 625.948 33.56C626.356 33.308 626.56 32.942 626.56 32.462C626.56 32.114 626.452 31.856 626.236 31.688C626.032 31.52 625.738 31.382 625.354 31.274C624.97 31.154 624.514 31.022 623.986 30.878C623.338 30.686 622.792 30.482 622.348 30.266C621.904 30.05 621.568 29.78 621.34 29.456C621.112 29.132 620.998 28.724 620.998 28.232C620.998 27.632 621.154 27.128 621.466 26.72C621.778 26.3 622.204 25.982 622.744 25.766C623.296 25.55 623.92 25.442 624.616 25.442C625.312 25.442 625.942 25.55 626.506 25.766C627.07 25.982 627.556 26.3 627.964 26.72L627.244 27.818C626.872 27.434 626.464 27.152 626.02 26.972C625.576 26.78 625.078 26.684 624.526 26.684C624.202 26.684 623.884 26.726 623.572 26.81C623.26 26.882 623.002 27.02 622.798 27.224C622.594 27.416 622.492 27.692 622.492 28.052C622.492 28.352 622.57 28.592 622.726 28.772C622.894 28.94 623.134 29.084 623.446 29.204C623.77 29.324 624.16 29.456 624.616 29.6C625.324 29.804 625.936 30.008 626.452 30.212C626.98 30.416 627.388 30.68 627.676 31.004C627.964 31.328 628.108 31.778 628.108 32.354C628.108 33.242 627.772 33.938 627.1 34.442C626.428 34.934 625.54 35.18 624.436 35.18ZM634.863 34.532C634.731 34.592 634.551 34.67 634.323 34.766C634.095 34.862 633.831 34.946 633.531 35.018C633.231 35.09 632.913 35.126 632.577 35.126C632.193 35.126 631.839 35.06 631.515 34.928C631.191 34.784 630.933 34.568 630.741 34.28C630.549 33.98 630.453 33.608 630.453 33.164V26.846H629.175V25.604H630.453V22.472H632.037V25.604H634.143V26.846H632.037V32.678C632.061 33.014 632.175 33.266 632.379 33.434C632.583 33.59 632.823 33.668 633.099 33.668C633.411 33.668 633.699 33.614 633.963 33.506C634.227 33.398 634.401 33.32 634.485 33.272L634.863 34.532ZM636.331 35V25.604H637.915V35H636.331ZM636.331 23.84V21.86H637.915V23.84H636.331ZM648.633 35H647.049V29.744C647.049 28.748 646.893 28.022 646.581 27.566C646.281 27.098 645.819 26.864 645.195 26.864C644.763 26.864 644.331 26.972 643.899 27.188C643.479 27.404 643.101 27.698 642.765 28.07C642.441 28.43 642.207 28.85 642.063 29.33V35H640.479V25.604H641.919V27.62C642.171 27.176 642.495 26.792 642.891 26.468C643.287 26.144 643.737 25.892 644.241 25.712C644.745 25.532 645.273 25.442 645.825 25.442C646.365 25.442 646.815 25.544 647.175 25.748C647.547 25.94 647.835 26.216 648.039 26.576C648.255 26.924 648.405 27.338 648.489 27.818C648.585 28.298 648.633 28.82 648.633 29.384V35ZM650.358 32.282C650.358 31.682 650.526 31.166 650.862 30.734C651.21 30.29 651.684 29.948 652.284 29.708C652.884 29.468 653.58 29.348 654.372 29.348C654.792 29.348 655.236 29.384 655.704 29.456C656.172 29.516 656.586 29.612 656.946 29.744V29.06C656.946 28.34 656.73 27.776 656.298 27.368C655.866 26.948 655.254 26.738 654.462 26.738C653.946 26.738 653.448 26.834 652.968 27.026C652.5 27.206 652.002 27.47 651.474 27.818L650.898 26.702C651.51 26.282 652.122 25.97 652.734 25.766C653.346 25.55 653.982 25.442 654.642 25.442C655.842 25.442 656.79 25.778 657.486 26.45C658.182 27.11 658.53 28.034 658.53 29.222V33.2C658.53 33.392 658.566 33.536 658.638 33.632C658.722 33.716 658.854 33.764 659.034 33.776V35C658.878 35.024 658.74 35.042 658.62 35.054C658.512 35.066 658.422 35.072 658.35 35.072C657.978 35.072 657.696 34.97 657.504 34.766C657.324 34.562 657.222 34.346 657.198 34.118L657.162 33.524C656.754 34.052 656.22 34.46 655.56 34.748C654.9 35.036 654.246 35.18 653.598 35.18C652.974 35.18 652.416 35.054 651.924 34.802C651.432 34.538 651.048 34.19 650.772 33.758C650.496 33.314 650.358 32.822 650.358 32.282ZM656.478 32.948C656.622 32.78 656.736 32.612 656.82 32.444C656.904 32.264 656.946 32.114 656.946 31.994V30.824C656.574 30.68 656.184 30.572 655.776 30.5C655.368 30.416 654.966 30.374 654.57 30.374C653.766 30.374 653.112 30.536 652.608 30.86C652.116 31.172 651.87 31.604 651.87 32.156C651.87 32.456 651.948 32.75 652.104 33.038C652.272 33.314 652.512 33.542 652.824 33.722C653.148 33.902 653.544 33.992 654.012 33.992C654.504 33.992 654.972 33.896 655.416 33.704C655.86 33.5 656.214 33.248 656.478 32.948ZM665.853 34.532C665.721 34.592 665.541 34.67 665.313 34.766C665.085 34.862 664.821 34.946 664.521 35.018C664.221 35.09 663.903 35.126 663.567 35.126C663.183 35.126 662.829 35.06 662.505 34.928C662.181 34.784 661.923 34.568 661.731 34.28C661.539 33.98 661.443 33.608 661.443 33.164V26.846H660.165V25.604H661.443V22.472H663.027V25.604H665.133V26.846H663.027V32.678C663.051 33.014 663.165 33.266 663.369 33.434C663.573 33.59 663.813 33.668 664.089 33.668C664.401 33.668 664.689 33.614 664.953 33.506C665.217 33.398 665.391 33.32 665.475 33.272L665.853 34.532ZM667.321 35V25.604H668.905V35H667.321ZM667.321 23.84V21.86H668.905V23.84H667.321ZM675.573 35.18C674.865 35.18 674.223 35.054 673.647 34.802C673.071 34.538 672.573 34.184 672.153 33.74C671.733 33.284 671.409 32.762 671.181 32.174C670.953 31.586 670.839 30.968 670.839 30.32C670.839 29.66 670.953 29.036 671.181 28.448C671.409 27.86 671.733 27.344 672.153 26.9C672.573 26.444 673.071 26.09 673.647 25.838C674.235 25.574 674.877 25.442 675.573 25.442C676.281 25.442 676.923 25.574 677.499 25.838C678.075 26.09 678.573 26.444 678.993 26.9C679.425 27.344 679.755 27.86 679.983 28.448C680.211 29.036 680.325 29.66 680.325 30.32C680.325 30.968 680.211 31.586 679.983 32.174C679.755 32.762 679.431 33.284 679.011 33.74C678.591 34.184 678.087 34.538 677.499 34.802C676.923 35.054 676.281 35.18 675.573 35.18ZM672.459 30.338C672.459 30.986 672.597 31.574 672.873 32.102C673.161 32.63 673.539 33.05 674.007 33.362C674.475 33.662 674.997 33.812 675.573 33.812C676.149 33.812 676.671 33.656 677.139 33.344C677.619 33.032 677.997 32.612 678.273 32.084C678.561 31.544 678.705 30.95 678.705 30.302C678.705 29.654 678.561 29.066 678.273 28.538C677.997 28.01 677.619 27.59 677.139 27.278C676.671 26.966 676.149 26.81 675.573 26.81C674.997 26.81 674.475 26.972 674.007 27.296C673.539 27.608 673.161 28.028 672.873 28.556C672.597 29.084 672.459 29.678 672.459 30.338ZM690.399 35H688.815V29.744C688.815 28.748 688.659 28.022 688.347 27.566C688.047 27.098 687.585 26.864 686.961 26.864C686.529 26.864 686.097 26.972 685.665 27.188C685.245 27.404 684.867 27.698 684.531 28.07C684.207 28.43 683.973 28.85 683.829 29.33V35H682.245V25.604H683.685V27.62C683.937 27.176 684.261 26.792 684.657 26.468C685.053 26.144 685.503 25.892 686.007 25.712C686.511 25.532 687.039 25.442 687.591 25.442C688.131 25.442 688.581 25.544 688.941 25.748C689.313 25.94 689.601 26.216 689.805 26.576C690.021 26.924 690.171 27.338 690.255 27.818C690.351 28.298 690.399 28.82 690.399 29.384V35Z" fill="#030712" fill-opacity="0.7"/>
<path d="M757.304 24.902C757.16 24.734 756.968 24.572 756.728 24.416C756.488 24.26 756.218 24.122 755.918 24.002C755.618 23.87 755.288 23.768 754.928 23.696C754.58 23.612 754.214 23.57 753.83 23.57C752.846 23.57 752.12 23.756 751.652 24.128C751.184 24.5 750.95 25.01 750.95 25.658C750.95 26.114 751.07 26.474 751.31 26.738C751.55 27.002 751.916 27.218 752.408 27.386C752.912 27.554 753.548 27.728 754.316 27.908C755.204 28.1 755.972 28.334 756.62 28.61C757.268 28.886 757.766 29.258 758.114 29.726C758.462 30.182 758.636 30.794 758.636 31.562C758.636 32.174 758.516 32.708 758.276 33.164C758.048 33.608 757.724 33.98 757.304 34.28C756.884 34.568 756.392 34.784 755.828 34.928C755.264 35.06 754.652 35.126 753.992 35.126C753.344 35.126 752.708 35.06 752.084 34.928C751.472 34.784 750.89 34.58 750.338 34.316C749.786 34.052 749.27 33.722 748.79 33.326L749.564 31.958C749.756 32.162 750.002 32.366 750.302 32.57C750.614 32.762 750.962 32.942 751.346 33.11C751.742 33.278 752.168 33.416 752.624 33.524C753.08 33.62 753.548 33.668 754.028 33.668C754.94 33.668 755.648 33.506 756.152 33.182C756.656 32.846 756.908 32.36 756.908 31.724C756.908 31.244 756.764 30.86 756.476 30.572C756.2 30.284 755.786 30.044 755.234 29.852C754.682 29.66 754.01 29.468 753.218 29.276C752.354 29.06 751.628 28.826 751.04 28.574C750.452 28.31 750.008 27.968 749.708 27.548C749.42 27.128 749.276 26.582 749.276 25.91C749.276 25.094 749.474 24.404 749.87 23.84C750.266 23.276 750.812 22.85 751.508 22.562C752.204 22.274 752.99 22.13 753.866 22.13C754.442 22.13 754.976 22.19 755.468 22.31C755.972 22.43 756.44 22.598 756.872 22.814C757.304 23.03 757.7 23.288 758.06 23.588L757.304 24.902ZM764.672 35.18C763.964 35.18 763.316 35.054 762.728 34.802C762.152 34.538 761.648 34.184 761.216 33.74C760.796 33.284 760.466 32.762 760.226 32.174C759.998 31.586 759.884 30.962 759.884 30.302C759.884 29.414 760.088 28.604 760.496 27.872C760.904 27.14 761.468 26.552 762.188 26.108C762.92 25.664 763.754 25.442 764.69 25.442C765.638 25.442 766.46 25.67 767.156 26.126C767.864 26.57 768.41 27.158 768.794 27.89C769.19 28.61 769.388 29.39 769.388 30.23C769.388 30.35 769.382 30.47 769.37 30.59C769.37 30.698 769.364 30.782 769.352 30.842H761.558C761.606 31.454 761.774 32 762.062 32.48C762.362 32.948 762.746 33.32 763.214 33.596C763.682 33.86 764.186 33.992 764.726 33.992C765.302 33.992 765.842 33.848 766.346 33.56C766.862 33.272 767.216 32.894 767.408 32.426L768.776 32.804C768.572 33.26 768.266 33.668 767.858 34.028C767.462 34.388 766.988 34.67 766.436 34.874C765.896 35.078 765.308 35.18 764.672 35.18ZM761.504 29.744H767.912C767.864 29.132 767.69 28.592 767.39 28.124C767.09 27.656 766.706 27.29 766.238 27.026C765.77 26.762 765.254 26.63 764.69 26.63C764.138 26.63 763.628 26.762 763.16 27.026C762.692 27.29 762.308 27.656 762.008 28.124C761.72 28.592 761.552 29.132 761.504 29.744ZM770.411 32.282C770.411 31.682 770.579 31.166 770.915 30.734C771.263 30.29 771.737 29.948 772.337 29.708C772.937 29.468 773.633 29.348 774.425 29.348C774.845 29.348 775.289 29.384 775.757 29.456C776.225 29.516 776.639 29.612 776.999 29.744V29.06C776.999 28.34 776.783 27.776 776.351 27.368C775.919 26.948 775.307 26.738 774.515 26.738C773.999 26.738 773.501 26.834 773.021 27.026C772.553 27.206 772.055 27.47 771.527 27.818L770.951 26.702C771.563 26.282 772.175 25.97 772.787 25.766C773.399 25.55 774.035 25.442 774.695 25.442C775.895 25.442 776.843 25.778 777.539 26.45C778.235 27.11 778.583 28.034 778.583 29.222V33.2C778.583 33.392 778.619 33.536 778.691 33.632C778.775 33.716 778.907 33.764 779.087 33.776V35C778.931 35.024 778.793 35.042 778.673 35.054C778.565 35.066 778.475 35.072 778.403 35.072C778.031 35.072 777.749 34.97 777.557 34.766C777.377 34.562 777.275 34.346 777.251 34.118L777.215 33.524C776.807 34.052 776.273 34.46 775.613 34.748C774.953 35.036 774.299 35.18 773.651 35.18C773.027 35.18 772.469 35.054 771.977 34.802C771.485 34.538 771.101 34.19 770.825 33.758C770.549 33.314 770.411 32.822 770.411 32.282ZM776.531 32.948C776.675 32.78 776.789 32.612 776.873 32.444C776.957 32.264 776.999 32.114 776.999 31.994V30.824C776.627 30.68 776.237 30.572 775.829 30.5C775.421 30.416 775.019 30.374 774.623 30.374C773.819 30.374 773.165 30.536 772.661 30.86C772.169 31.172 771.923 31.604 771.923 32.156C771.923 32.456 772.001 32.75 772.157 33.038C772.325 33.314 772.565 33.542 772.877 33.722C773.201 33.902 773.597 33.992 774.065 33.992C774.557 33.992 775.025 33.896 775.469 33.704C775.913 33.5 776.267 33.248 776.531 32.948ZM786.084 26.99C785.292 27.002 784.59 27.206 783.978 27.602C783.378 27.986 782.952 28.52 782.7 29.204V35H781.116V25.604H782.592V27.782C782.916 27.134 783.342 26.612 783.87 26.216C784.41 25.808 784.974 25.58 785.562 25.532C785.682 25.532 785.784 25.532 785.868 25.532C785.952 25.532 786.024 25.538 786.084 25.55V26.99ZM791.584 35.18C790.876 35.18 790.228 35.054 789.64 34.802C789.064 34.538 788.56 34.178 788.128 33.722C787.708 33.266 787.378 32.744 787.138 32.156C786.91 31.568 786.796 30.944 786.796 30.284C786.796 29.396 786.994 28.586 787.39 27.854C787.786 27.122 788.344 26.54 789.064 26.108C789.784 25.664 790.618 25.442 791.566 25.442C792.49 25.442 793.294 25.652 793.978 26.072C794.674 26.48 795.19 27.032 795.526 27.728L793.978 28.214C793.738 27.77 793.402 27.428 792.97 27.188C792.538 26.936 792.058 26.81 791.53 26.81C790.954 26.81 790.426 26.96 789.946 27.26C789.478 27.56 789.106 27.974 788.83 28.502C788.554 29.018 788.416 29.612 788.416 30.284C788.416 30.944 788.554 31.544 788.83 32.084C789.118 32.612 789.496 33.032 789.964 33.344C790.444 33.656 790.972 33.812 791.548 33.812C791.92 33.812 792.274 33.746 792.61 33.614C792.958 33.482 793.258 33.308 793.51 33.092C793.774 32.864 793.954 32.618 794.05 32.354L795.598 32.822C795.406 33.278 795.112 33.686 794.716 34.046C794.332 34.394 793.87 34.67 793.33 34.874C792.802 35.078 792.22 35.18 791.584 35.18ZM805.547 35H803.963V29.744C803.963 28.784 803.789 28.064 803.441 27.584C803.105 27.104 802.619 26.864 801.983 26.864C801.575 26.864 801.161 26.972 800.741 27.188C800.333 27.404 799.973 27.698 799.661 28.07C799.349 28.43 799.121 28.85 798.977 29.33V35H797.393V21.86H798.977V27.62C799.349 26.948 799.853 26.42 800.489 26.036C801.137 25.64 801.833 25.442 802.577 25.442C803.141 25.442 803.609 25.544 803.981 25.748C804.365 25.94 804.671 26.216 804.899 26.576C805.127 26.936 805.289 27.356 805.385 27.836C805.493 28.304 805.547 28.82 805.547 29.384V35Z" fill="#030712" fill-opacity="0.7"/>
<rect x="1043" width="130" height="56" rx="12" fill="#1DD100" fill-opacity="0.1"/>
<rect x="1043.5" y="0.5" width="129" height="55" rx="11.5" stroke="#1DD100" stroke-opacity="0.4"/>
<path d="M1085.97 31.84C1085.97 32.44 1085.85 32.9667 1085.61 33.42C1085.37 33.8733 1085.04 34.2533 1084.61 34.56C1084.2 34.8667 1083.71 35.1 1083.15 35.26C1082.6 35.42 1082.02 35.5 1081.39 35.5H1074.53V21.3H1082.13C1082.62 21.3 1083.07 21.4067 1083.47 21.62C1083.87 21.8333 1084.21 22.1133 1084.49 22.46C1084.77 22.7933 1084.98 23.18 1085.13 23.62C1085.29 24.0467 1085.37 24.48 1085.37 24.92C1085.37 25.6133 1085.2 26.2667 1084.85 26.88C1084.5 27.48 1084 27.9267 1083.33 28.22C1084.14 28.46 1084.78 28.8933 1085.25 29.52C1085.73 30.1333 1085.97 30.9067 1085.97 31.84ZM1083.19 31.32C1083.19 31.0667 1083.14 30.8267 1083.05 30.6C1082.97 30.36 1082.86 30.1533 1082.71 29.98C1082.56 29.8067 1082.39 29.6733 1082.19 29.58C1081.99 29.4733 1081.77 29.42 1081.53 29.42H1077.29V33.16H1081.39C1081.64 33.16 1081.88 33.1133 1082.09 33.02C1082.32 32.9267 1082.51 32.8 1082.67 32.64C1082.83 32.4667 1082.96 32.2667 1083.05 32.04C1083.14 31.8133 1083.19 31.5733 1083.19 31.32ZM1077.29 23.66V27.24H1080.97C1081.44 27.24 1081.83 27.08 1082.15 26.76C1082.48 26.44 1082.65 26 1082.65 25.44C1082.65 24.8933 1082.5 24.46 1082.19 24.14C1081.9 23.82 1081.53 23.66 1081.09 23.66H1077.29ZM1091.06 35.7C1089.98 35.7 1089.16 35.3533 1088.6 34.66C1088.04 33.9667 1087.76 32.94 1087.76 31.58V25.02H1090.44V31C1090.44 32.6133 1091.02 33.42 1092.18 33.42C1092.7 33.42 1093.2 33.2667 1093.68 32.96C1094.18 32.64 1094.58 32.16 1094.88 31.52V25.02H1097.56V32.42C1097.56 32.7 1097.61 32.9 1097.7 33.02C1097.81 33.14 1097.98 33.2067 1098.2 33.22V35.5C1097.94 35.5533 1097.71 35.5867 1097.52 35.6C1097.35 35.6133 1097.19 35.62 1097.04 35.62C1096.56 35.62 1096.17 35.5133 1095.86 35.3C1095.57 35.0733 1095.4 34.7667 1095.34 34.38L1095.28 33.54C1094.82 34.26 1094.22 34.8 1093.48 35.16C1092.75 35.52 1091.94 35.7 1091.06 35.7ZM1104.19 35.7C1103.31 35.7 1102.45 35.56 1101.61 35.28C1100.77 35 1100.05 34.6 1099.45 34.08L1100.45 32.4C1101.09 32.8533 1101.71 33.2 1102.31 33.44C1102.92 33.6667 1103.53 33.78 1104.13 33.78C1104.66 33.78 1105.08 33.68 1105.39 33.48C1105.69 33.28 1105.85 32.9933 1105.85 32.62C1105.85 32.2467 1105.67 31.9733 1105.31 31.8C1104.95 31.6267 1104.36 31.4267 1103.55 31.2C1102.87 31.0133 1102.29 30.8333 1101.81 30.66C1101.33 30.4867 1100.94 30.2933 1100.65 30.08C1100.35 29.8533 1100.14 29.6 1100.01 29.32C1099.87 29.0267 1099.81 28.68 1099.81 28.28C1099.81 27.7467 1099.91 27.2667 1100.11 26.84C1100.32 26.4133 1100.61 26.0533 1100.99 25.76C1101.36 25.4533 1101.79 25.22 1102.29 25.06C1102.79 24.9 1103.34 24.82 1103.93 24.82C1104.71 24.82 1105.45 24.9333 1106.13 25.16C1106.82 25.3867 1107.45 25.7533 1108.03 26.26L1106.95 27.88C1106.41 27.48 1105.89 27.1867 1105.39 27C1104.89 26.8133 1104.4 26.72 1103.91 26.72C1103.45 26.72 1103.07 26.8133 1102.77 27C1102.46 27.1867 1102.31 27.4867 1102.31 27.9C1102.31 28.0867 1102.34 28.24 1102.41 28.36C1102.49 28.48 1102.61 28.5867 1102.77 28.68C1102.93 28.7733 1103.13 28.8667 1103.39 28.96C1103.65 29.04 1103.98 29.1267 1104.37 29.22C1105.09 29.4067 1105.7 29.5933 1106.21 29.78C1106.73 29.9667 1107.15 30.18 1107.47 30.42C1107.8 30.66 1108.04 30.94 1108.19 31.26C1108.35 31.5667 1108.43 31.94 1108.43 32.38C1108.43 33.4067 1108.05 34.22 1107.29 34.82C1106.53 35.4067 1105.49 35.7 1104.19 35.7Z" fill="#1DD100"/>
<path d="M1123 33C1123 33.5304 1123.21 34.0391 1123.59 34.4142C1123.96 34.7893 1124.47 35 1125 35C1125.53 35 1126.04 34.7893 1126.41 34.4142C1126.79 34.0391 1127 33.5304 1127 33M1123 33C1123 32.4696 1123.21 31.9609 1123.59 31.5858C1123.96 31.2107 1124.47 31 1125 31C1125.53 31 1126.04 31.2107 1126.41 31.5858C1126.79 31.9609 1127 32.4696 1127 33M1123 33H1121V22C1121 21.7348 1121.11 21.4804 1121.29 21.2929C1121.48 21.1054 1121.73 21 1122 21H1136C1137.33 21 1138.6 21.7375 1139.54 23.0503C1140.47 24.363 1141 26.1435 1141 28M1127 33H1135M1135 33C1135 33.5304 1135.21 34.0391 1135.59 34.4142C1135.96 34.7893 1136.47 35 1137 35C1137.53 35 1138.04 34.7893 1138.41 34.4142C1138.79 34.0391 1139 33.5304 1139 33M1135 33C1135 32.4696 1135.21 31.9609 1135.59 31.5858C1135.96 31.2107 1136.47 31 1137 31C1137.53 31 1138.04 31.2107 1138.41 31.5858C1138.79 31.9609 1139 32.4696 1139 33M1139 33H1141V28M1141 28H1136.5L1135 21M1121 26H1136M1126 21V26M1131 21V26" stroke="#1DD100" stroke-width="1.5" stroke-linecap="round" stroke-linejoin="round"/>
</svg>
